<svg xmlns="http://www.w3.org/2000/svg" viewBox="0 0 320 240" role="img" aria-labelledby="title desc">
  <title>Premium camel</title>
  <desc>A friendly camel with warm desert tones in a premium illustrated style.</desc>
  <defs>
    <linearGradient id="cmBg" x1="0" y1="0" x2="1" y2="1">
      <stop offset="0%" stop-color="#fff9f0"/>
      <stop offset="100%" stop-color="#f9e3c3"/>
    </linearGradient>
    <linearGradient id="cmBody" x1="0" y1="0" x2="1" y2="1">
      <stop offset="0%" stop-color="#dcb07b"/>
      <stop offset="100%" stop-color="#b77a45"/>
    </linearGradient>
    <radialGradient id="cmShadow" cx="50%" cy="50%" r="50%">
      <stop offset="0%" stop-color="#96643e" stop-opacity="0.24"/>
      <stop offset="100%" stop-color="#96643e" stop-opacity="0"/>
    </radialGradient>
  </defs>
  <rect width="320" height="240" rx="30" fill="url(#cmBg)"/>
  <ellipse cx="160" cy="190" rx="96" ry="18" fill="url(#cmShadow)"/>
  <path d="M74 136c11-11 27-19 47-24 7-2 17-15 31-37 16-26 37-38 58-38 17 0 31 8 39 22 7 12 14 21 20 26 20 7 36 22 45 43 7 17 6 31-2 43-9 13-25 20-48 20H121c-41 0-61-14-61-42 0-5 5-10 14-13z" fill="url(#cmBody)"/>
  <path d="M95 118c31 8 62 8 94 0" fill="none" stroke="#ebc697" stroke-width="6" stroke-linecap="round" opacity="0.6"/>
  <path d="M214 93c8-23 23-39 41-46 11-4 20-1 27 8 8 12 8 27 1 43-6 12-16 23-29 31" fill="url(#cmBody)"/>
  <circle cx="246" cy="100" r="5" fill="#222"/>
  <path d="M251 108c7 5 16 5 23 0" fill="none" stroke="#7f5432" stroke-width="3" stroke-linecap="round"/>
  <path d="M272 116l17 4-13 8z" fill="#8c5d37"/>
  <g stroke="#8e6038" stroke-width="7" stroke-linecap="round">
    <path d="M112 161v35"/>
    <path d="M148 161v35"/>
    <path d="M220 159v37"/>
    <path d="M256 151v45"/>
  </g>
  <g stroke="#c48c58" stroke-width="4" stroke-linecap="round" opacity="0.6">
    <path d="M143 59c11 15 18 33 18 54"/>
    <path d="M191 52c9 14 15 29 17 47"/>
  </g>
</svg>