<svg xmlns="http://www.w3.org/2000/svg" viewBox="0 0 200 200" role="img" aria-labelledby="title desc">
  <title>Bowl of noodles</title>
  <desc>A more realistic bowl of noodles with garnish and chopsticks.</desc>
  <defs>
    <linearGradient id="table" x1="0" y1="0" x2="1" y2="1">
      <stop offset="0%" stop-color="#fff7ec"/>
      <stop offset="100%" stop-color="#f7e5c9"/>
    </linearGradient>
    <radialGradient id="bowlShadow" cx="50%" cy="50%" r="50%">
      <stop offset="0%" stop-color="#765037" stop-opacity="0.28"/>
      <stop offset="100%" stop-color="#765037" stop-opacity="0"/>
    </radialGradient>
    <linearGradient id="bowlOuter" x1="0" y1="0" x2="0" y2="1">
      <stop offset="0%" stop-color="#d47a42"/>
      <stop offset="100%" stop-color="#9e4828"/>
    </linearGradient>
    <linearGradient id="broth" x1="0" y1="0" x2="1" y2="1">
      <stop offset="0%" stop-color="#ffd36b"/>
      <stop offset="100%" stop-color="#f0a833"/>
    </linearGradient>
  </defs>
  <rect width="200" height="200" rx="24" fill="url(#table)"/>
  <ellipse cx="100" cy="158" rx="60" ry="16" fill="url(#bowlShadow)"/>
  <ellipse cx="100" cy="101" rx="59" ry="23" fill="#f7c567"/>
  <ellipse cx="100" cy="104" rx="53" ry="18" fill="url(#broth)"/>
  <g fill="none" stroke="#f6d883" stroke-width="4.5" stroke-linecap="round">
    <path d="M58 102c7-14 19-18 33-13 11 4 17 4 25-1 10-6 21-4 31 7"/>
    <path d="M53 110c10-11 22-15 35-10 9 3 16 4 22 1 12-6 24-3 35 8"/>
    <path d="M64 94c10-8 20-9 31-2 7 4 13 4 21 0 8-4 18-4 27 3"/>
    <path d="M73 117c10-9 18-10 28-4 8 4 14 4 22 0 8-4 15-4 21 2"/>
  </g>
  <g>
    <ellipse cx="85" cy="98" rx="8" ry="5" fill="#4b8f43"/>
    <ellipse cx="116" cy="95" rx="9" ry="5" fill="#5fa74e"/>
    <ellipse cx="129" cy="108" rx="7" ry="4" fill="#4b8f43"/>
    <ellipse cx="93" cy="110" rx="7" ry="4" fill="#d86c52"/>
    <ellipse cx="105" cy="101" rx="6" ry="4" fill="#f7f1d6"/>
  </g>
  <path d="M40 106h120" stroke="#7a3e1f" stroke-width="6" stroke-linecap="round"/>
  <path d="M45 108c4 31 27 53 55 53s51-22 55-53" fill="url(#bowlOuter)"/>
  <path d="M57 118c6 20 23 32 43 32s37-12 43-32" fill="none" stroke="#ecac76" stroke-width="2.5" stroke-linecap="round"/>
  <path d="M132 48l26 49" stroke="#5c392a" stroke-width="5.5" stroke-linecap="round"/>
  <path d="M144 44l27 50" stroke="#744735" stroke-width="5.5" stroke-linecap="round"/>
</svg>