<svg xmlns="http://www.w3.org/2000/svg" viewBox="0 0 320 240" role="img" aria-labelledby="title desc">
  <title id="title">Spaghetti</title>
  <desc id="desc">Illustration card for spaghetti</desc>
  <defs>
    <linearGradient id="sp-bg" x1="0" y1="0" x2="1" y2="1">
      <stop offset="0%" stop-color="#fef9c3"/>
      <stop offset="100%" stop-color="#ffedd5"/>
    </linearGradient>
  </defs>
  <rect width="320" height="240" rx="24" fill="url(#sp-bg)"/>
  <ellipse cx="160" cy="164" rx="95" ry="26" fill="#fb923c"/>
  <g stroke="#facc15" stroke-width="5" fill="none" stroke-linecap="round">
    <path d="M86 156c18-18 42-22 74-10 24 9 46 7 74-8"/>
    <path d="M90 166c20-13 40-17 70-8 28 8 48 7 72-6"/>
    <path d="M94 176c18-10 40-14 67-7 31 8 52 7 69-4"/>
    <path d="M104 146c21-13 38-15 60-8 30 10 54 10 74-2"/>
  </g>
  <circle cx="140" cy="154" r="6" fill="#dc2626"/>
  <circle cx="176" cy="160" r="6" fill="#dc2626"/>
  <circle cx="203" cy="150" r="6" fill="#dc2626"/>
  <text x="160" y="215" text-anchor="middle" font-size="25" font-family="Arial, sans-serif" fill="#9a3412">SPAGHETTI</text>
</svg>
