<svg xmlns="http://www.w3.org/2000/svg" viewBox="0 0 320 240" role="img" aria-labelledby="title desc">
  <title>Premium tiger</title>
  <desc>A warm, expressive tiger portrait in a premium illustrated style.</desc>
  <defs>
    <linearGradient id="tgBg" x1="0" y1="0" x2="1" y2="1">
      <stop offset="0%" stop-color="#fff8ef"/>
      <stop offset="100%" stop-color="#fde6c8"/>
    </linearGradient>
    <linearGradient id="tgBody" x1="0" y1="0" x2="1" y2="1">
      <stop offset="0%" stop-color="#ffbf63"/>
      <stop offset="100%" stop-color="#e08a2c"/>
    </linearGradient>
    <radialGradient id="tgShadow" cx="50%" cy="50%" r="50%">
      <stop offset="0%" stop-color="#8b5a2b" stop-opacity="0.28"/>
      <stop offset="100%" stop-color="#8b5a2b" stop-opacity="0"/>
    </radialGradient>
  </defs>
  <rect width="320" height="240" rx="30" fill="url(#tgBg)"/>
  <ellipse cx="165" cy="188" rx="92" ry="18" fill="url(#tgShadow)"/>
  <path d="M86 143c4-43 36-86 92-86 32 0 61 11 80 34 10 12 16 27 16 43 0 17-8 33-21 44-17 13-39 20-74 20-59 0-100-18-93-55z" fill="url(#tgBody)"/>
  <path d="M95 111c12-23 31-39 58-46 38-10 72 0 98 30" fill="none" stroke="#ffd190" stroke-width="8" stroke-linecap="round" opacity="0.6"/>
  <circle cx="100" cy="112" r="34" fill="url(#tgBody)"/>
  <path d="M74 88l-12-19 24 6z" fill="#3a2a1d"/>
  <path d="M114 84l14-18 10 22z" fill="#3a2a1d"/>
  <path d="M73 121c14 10 40 10 54 0" fill="#fff4df"/>
  <ellipse cx="98" cy="124" rx="18" ry="12" fill="#fff4df"/>
  <circle cx="87" cy="107" r="5" fill="#1d1d1d"/>
  <circle cx="110" cy="107" r="5" fill="#1d1d1d"/>
  <path d="M98 113l6 8h-12z" fill="#7a4f35"/>
  <path d="M92 128c5 4 9 4 14 0" fill="none" stroke="#7a4f35" stroke-width="3" stroke-linecap="round"/>
  <g stroke="#2b1e14" stroke-width="6" stroke-linecap="round">
    <path d="M129 88c10 4 18 10 22 17"/>
    <path d="M142 73c16 5 31 11 42 21"/>
    <path d="M161 67c18 6 35 12 49 23"/>
    <path d="M181 65c19 4 39 12 57 26"/>
    <path d="M168 96c9 6 14 14 16 23"/>
    <path d="M201 95c10 8 16 18 19 29"/>
    <path d="M220 103c9 10 14 22 15 33"/>
    <path d="M126 122c-9 8-13 18-13 31"/>
    <path d="M162 126c-3 11-2 22 4 33"/>
    <path d="M193 128c1 12 7 23 17 33"/>
    <path d="M221 126c7 8 13 18 18 30"/>
  </g>
  <g stroke="#2b1e14" stroke-width="2" stroke-linecap="round" opacity="0.5">
    <path d="M67 123l-18 5"/>
    <path d="M67 128l-19 11"/>
    <path d="M129 124l18 4"/>
    <path d="M129 128l18 11"/>
  </g>
</svg>