<svg xmlns="http://www.w3.org/2000/svg" viewBox="0 0 320 240" role="img" aria-labelledby="title desc">
  <title>Banana scent card</title>
  <desc>Premium style card with curved banana illustration.</desc>
  <defs>
    <linearGradient id="bg" x1="0" y1="0" x2="1" y2="1">
      <stop offset="0%" stop-color="#fefce8"/>
      <stop offset="100%" stop-color="#fef9c3"/>
    </linearGradient>
    <linearGradient id="banana" x1="0" y1="0" x2="1" y2="1">
      <stop offset="0%" stop-color="#fde047"/>
      <stop offset="100%" stop-color="#facc15"/>
    </linearGradient>
  </defs>
  <rect width="320" height="240" rx="28" fill="url(#bg)"/>
  <ellipse cx="162" cy="188" rx="84" ry="16" fill="#facc15" opacity="0.25"/>
  <path d="M72 132c18 40 62 62 114 56 30-4 56-17 73-39-18 6-38 9-61 9-47 0-88-13-126-26z" fill="url(#banana)"/>
  <path d="M94 122c17 20 48 33 84 34 27 1 51-5 71-17" fill="none" stroke="#ca8a04" stroke-width="7" stroke-linecap="round"/>
  <circle cx="72" cy="132" r="4" fill="#78350f"/>
  <circle cx="259" cy="149" r="4" fill="#78350f"/>
</svg>
