<svg xmlns="http://www.w3.org/2000/svg" viewBox="0 0 320 240" role="img" aria-labelledby="title desc">
  <title>Cinnamon scent card</title>
  <desc>Premium style card with cinnamon stick illustration.</desc>
  <defs>
    <linearGradient id="bg" x1="0" y1="0" x2="1" y2="1">
      <stop offset="0%" stop-color="#fef2f2"/>
      <stop offset="100%" stop-color="#fee2e2"/>
    </linearGradient>
    <linearGradient id="stick" x1="0" y1="0" x2="1" y2="1">
      <stop offset="0%" stop-color="#b45309"/>
      <stop offset="100%" stop-color="#7c2d12"/>
    </linearGradient>
  </defs>
  <rect width="320" height="240" rx="28" fill="url(#bg)"/>
  <ellipse cx="160" cy="192" rx="80" ry="14" fill="#fca5a5" opacity="0.3"/>
  <g transform="translate(74 58)">
    <rect x="0" y="56" width="164" height="26" rx="13" fill="url(#stick)" transform="rotate(-16 82 69)"/>
    <rect x="12" y="38" width="164" height="26" rx="13" fill="url(#stick)" transform="rotate(12 94 51)"/>
    <g fill="none" stroke="#f59e0b" stroke-width="2" opacity="0.75">
      <path d="M18 74c8 0 8-10 16-10"/>
      <path d="M46 72c8 0 8-10 16-10"/>
      <path d="M74 70c8 0 8-10 16-10"/>
      <path d="M102 68c8 0 8-10 16-10"/>
    </g>
  </g>
</svg>
