<svg xmlns="http://www.w3.org/2000/svg" viewBox="0 0 320 240" role="img" aria-labelledby="title desc">
  <title id="title">Ginger root</title>
  <desc id="desc">Illustration card for ginger scent cue</desc>
  <defs>
    <linearGradient id="g-bg" x1="0" y1="0" x2="1" y2="1">
      <stop offset="0%" stop-color="#fff7ed"/>
      <stop offset="100%" stop-color="#ffedd5"/>
    </linearGradient>
    <linearGradient id="g-root" x1="0" y1="0" x2="1" y2="1">
      <stop offset="0%" stop-color="#f59e0b"/>
      <stop offset="100%" stop-color="#b45309"/>
    </linearGradient>
  </defs>
  <rect width="320" height="240" rx="24" fill="url(#g-bg)"/>
  <g transform="translate(40 24)">
    <path d="M114 98c-15-21-7-42 11-49 16-6 34 0 45 15 16-8 35-5 46 7 11 12 11 31-1 46-5 6-10 10-17 13l-18 8-10 23c-8 19-32 28-51 20-20-8-30-31-22-52l9-25-20-6c-15-4-25-14-28-28-4-16 5-31 20-36 13-4 27 1 36 12z" fill="url(#g-root)" stroke="#92400e" stroke-width="6"/>
    <path d="M164 64l14 19M122 90l18 8M193 113l15 12M150 133l12 14" stroke="#fcd34d" stroke-width="6" stroke-linecap="round"/>
  </g>
  <text x="160" y="214" text-anchor="middle" font-size="26" font-family="Arial, sans-serif" fill="#7c2d12">GINGER</text>
</svg>
