<svg xmlns="http://www.w3.org/2000/svg" viewBox="0 0 320 240" role="img" aria-labelledby="title desc">
  <title>Pineapple scent card</title>
  <desc>Premium style card with pineapple fruit illustration.</desc>
  <defs>
    <linearGradient id="bg" x1="0" y1="0" x2="1" y2="1">
      <stop offset="0%" stop-color="#fff7ed"/>
      <stop offset="100%" stop-color="#fef3c7"/>
    </linearGradient>
    <linearGradient id="body" x1="0" y1="0" x2="1" y2="1">
      <stop offset="0%" stop-color="#fbbf24"/>
      <stop offset="100%" stop-color="#f59e0b"/>
    </linearGradient>
  </defs>
  <rect width="320" height="240" rx="28" fill="url(#bg)"/>
  <ellipse cx="160" cy="192" rx="82" ry="14" fill="#f59e0b" opacity="0.25"/>
  <g transform="translate(0 -2)">
    <ellipse cx="160" cy="138" rx="56" ry="66" fill="url(#body)"/>
    <g fill="none" stroke="#b45309" stroke-width="3" opacity="0.6">
      <path d="M116 104l88 68"/>
      <path d="M110 122l98 76"/>
      <path d="M120 86l78 60"/>
      <path d="M204 104l-88 68"/>
      <path d="M210 122l-98 76"/>
      <path d="M200 86l-78 60"/>
    </g>
    <g fill="#65a30d">
      <path d="M160 58l10-32 10 30z"/>
      <path d="M146 60l-15-26 26 16z"/>
      <path d="M174 60l18-24-8 28z"/>
      <path d="M160 66l-24-16 22 4z"/>
      <path d="M160 66l26-14-12 18z"/>
    </g>
  </g>
</svg>
